<svg xmlns="http://www.w3.org/2000/svg" width="181.826" height="181.826" viewBox="0 0 181.826 181.826">
  <g id="Component_20_9" data-name="Component 20 – 9" transform="translate(90.913) rotate(45)">
    <g id="Group_23" data-name="Group 23" transform="translate(314.539 -1380.396) rotate(45)">
      <g id="Path_64" data-name="Path 64" transform="translate(786 1163)" fill="none">
        <path d="M23.5,0C29.574,0,42.046,15.97,47,30.692,52.425,46.814,49.8,62.27,47,68.5c-1.448,2.293-30.729,1.888-40.519-10.05S10.521,0,23.5,0Z" stroke="none"/>
        <path d="M 23.40757942199707 8.420303344726562 C 20.8056468963623 10.68095397949219 15.91742706298828 18.92526626586914 13.01106643676758 31.21645355224609 C 9.879665374755859 44.45939636230469 11.42679214477539 51.86527252197266 12.66664886474609 53.37701416015625 C 16.88744735717773 58.52339935302734 29.84328460693359 61.59870529174805 39.93033981323242 61.59870529174805 C 40.2664794921875 61.59870529174805 40.58031845092773 61.59487915039062 40.87224960327148 61.58811950683594 C 42.29436492919922 55.80928039550781 43.41064834594727 45.10874176025391 39.41773986816406 33.24372482299805 C 35.61988067626953 21.95701217651367 27.36619567871094 11.23606109619141 23.40757942199707 8.420303344726562 M 23.4999942779541 0 C 29.57402992248535 0 42.04613876342773 15.97018051147461 46.99999237060547 30.69237899780273 C 52.42526626586914 46.81366729736328 49.79741287231445 62.27030563354492 46.99999237060547 68.5 C 45.55224990844727 70.79297637939453 16.271484375 70.38770294189453 6.48095703125 58.4501953125 C -3.3095703125 46.5127067565918 10.52130126953125 0 23.4999942779541 0 Z" stroke="none" fill="#9a9a9a"/>
      </g>
      <g id="Ellipse_14" data-name="Ellipse 14" transform="translate(900 1196) rotate(90)" fill="none" stroke="#9a9a9a" stroke-width="8">
        <ellipse cx="19" cy="55" rx="19" ry="55" stroke="none"/>
        <ellipse cx="19" cy="55" rx="15" ry="51" fill="none"/>
      </g>
    </g>
    <circle id="Ellipse_15" data-name="Ellipse 15" cx="6" cy="6" r="6" transform="translate(107.72 78.511)" fill="#9a9a9a"/>
  </g>
</svg>
