<svg xmlns="http://www.w3.org/2000/svg" width="181.826" height="181.826" viewBox="0 0 181.826 181.826">
  <g id="Component_20_9" data-name="Component 20 – 9" transform="translate(90.913) rotate(45)">
    <g id="Group_23" data-name="Group 23" transform="translate(314.539 -1380.396) rotate(45)">
      <g id="Path_64" data-name="Path 64" transform="translate(786 1163)" fill="#fff">
        <path d="M 39.93034744262695 65.59870147705078 C 34.6136589050293 65.59870147705078 28.38032341003418 64.7587890625 23.25619888305664 63.35193634033203 C 16.85462379455566 61.5943489074707 12.12332344055176 59.02221298217773 9.573810577392578 55.91361236572266 C 8.851685523986816 55.03312683105469 7.894147872924805 53.2343864440918 7.433310508728027 49.66531372070312 C 7.049247741699219 46.69089889526367 7.096697807312012 42.98659896850586 7.570522785186768 38.95287704467773 C 8.506385803222656 30.98588752746582 11.04049777984619 22.05456352233887 14.34927272796631 15.06160068511963 C 16.07621002197266 11.41180038452148 17.94733619689941 8.438113212585449 19.76038551330566 6.462013244628906 C 21.1653881072998 4.9306321144104 22.55414772033691 4.012275218963623 23.48139381408691 4.000123500823975 C 23.57706069946289 4.013790130615234 24.60722351074219 4.200265407562256 26.79138565063477 6.061300754547119 C 28.6305980682373 7.628413200378418 30.68557357788086 9.879238128662109 32.73418426513672 12.57046318054199 C 34.85466003417969 15.35610103607178 36.91381072998047 18.54718780517578 38.68901062011719 21.79873847961426 C 40.58797454833984 25.27693748474121 42.10866165161133 28.69840049743652 43.2088737487793 31.96806335449219 C 46.03633499145508 40.36991500854492 46.33538436889648 48.10172653198242 46.08837127685547 53.10843658447266 C 45.82886123657227 58.36845779418945 44.88606262207031 62.65060806274414 43.93400573730469 65.37935638427734 C 43.12221527099609 65.49076843261719 41.81772232055664 65.59870147705078 39.93034744262695 65.59870147705078 Z" stroke="none"/>
        <path d="M 23.40757942199707 8.420303344726562 C 20.8056468963623 10.68095397949219 15.91742706298828 18.92526626586914 13.01106643676758 31.21645355224609 C 9.879665374755859 44.45939636230469 11.42679214477539 51.86527252197266 12.66664886474609 53.37701416015625 C 16.88744735717773 58.52339935302734 29.84328460693359 61.59870529174805 39.93033981323242 61.59870529174805 C 40.2664794921875 61.59870529174805 40.58031845092773 61.59487915039062 40.87224960327148 61.58811950683594 C 42.29436492919922 55.80928039550781 43.41064834594727 45.10874176025391 39.41773986816406 33.24372482299805 C 35.61988067626953 21.95701217651367 27.36619567871094 11.23606109619141 23.40757942199707 8.420303344726562 M 23.4999942779541 0 C 29.57402992248535 0 42.04613876342773 15.97018051147461 46.99999237060547 30.69237899780273 C 52.42526626586914 46.81366729736328 49.79741287231445 62.27030563354492 46.99999237060547 68.5 C 45.55224990844727 70.79297637939453 16.271484375 70.38770294189453 6.48095703125 58.4501953125 C -3.3095703125 46.5127067565918 10.52130126953125 0 23.4999942779541 0 Z" stroke="none" fill="#9a9a9a"/>
      </g>
      <g id="Ellipse_14" data-name="Ellipse 14" transform="translate(900 1196) rotate(90)" fill="none" stroke="#9a9a9a" stroke-width="8">
        <ellipse cx="19" cy="55" rx="19" ry="55" stroke="none"/>
        <ellipse cx="19" cy="55" rx="15" ry="51" fill="none"/>
      </g>
    </g>
    <circle id="Ellipse_15" data-name="Ellipse 15" cx="6" cy="6" r="6" transform="translate(107.72 78.511)" fill="#9a9a9a"/>
  </g>
</svg>
