<svg id="Component_20_8" data-name="Component 20 – 8" xmlns="http://www.w3.org/2000/svg" width="223.59" height="223.59" viewBox="0 0 223.59 223.59">
  <g id="Group_23" data-name="Group 23" transform="translate(57.675 53.843)">
    <g id="Ellipse_13" data-name="Ellipse 13" transform="translate(0 0)" fill="none">
      <path d="M109.517,19.433c.016,2.593-1.489,5.057-4.224,7.294a38.2,38.2,0,0,1-11.627,5.935A96.015,96.015,0,0,1,76.344,36.64a148.281,148.281,0,0,1-21.3,1.412,149.346,149.346,0,0,1-21.372-1.56,98.006,98.006,0,0,1-17.5-4.123A39.385,39.385,0,0,1,4.366,26.3C1.578,24.019.038,21.52.045,18.905S1.6,13.811,4.4,11.563A39.039,39.039,0,0,1,16.207,5.626a97.409,97.409,0,0,1,17.46-3.935A148.989,148.989,0,0,1,54.976.345,148.765,148.765,0,0,1,76.221,1.953,97.153,97.153,0,0,1,93.536,6.078a39.12,39.12,0,0,1,11.673,6.028C107.968,14.366,109.5,16.842,109.517,19.433Z" stroke="none"/>
      <path d="M 8.201800346374512 18.94456100463867 C 8.757436752319336 19.80033111572266 10.1651554107666 20.91828727722168 12.41515064239502 22.11581420898438 C 14.66477966308594 23.31314468383789 17.75587463378906 24.5897388458252 21.67788124084473 25.76291084289551 C 25.59823036193848 26.93558883666992 30.34762001037598 28.00458908081055 35.91449356079102 28.7874813079834 C 41.47724914550781 29.56979179382324 47.85436630249023 30.06613922119141 55.03300094604492 30.09472274780273 C 62.45637512207031 30.12428283691406 69.00553894042969 29.64667892456055 74.67238616943359 28.87502288818359 C 80.33359527587891 28.1041374206543 85.11529541015625 27.03964424133301 89.009521484375 25.89377784729004 C 92.90071105957031 24.74881553649902 95.90679931640625 23.5223217010498 98.01957702636719 22.42586517333984 C 100.1313247680664 21.32995986938477 101.3513336181641 20.36361503601074 101.6707763671875 19.73809814453125 C 101.3434982299805 18.93827819824219 100.1124420166016 17.83207893371582 97.98919677734375 16.62026214599609 C 95.86565399169922 15.4082727432251 92.84914398193359 14.09034061431885 88.95043182373047 12.86713790893555 C 85.05010223388672 11.6434268951416 80.26563262939453 10.51414966583252 74.60664367675781 9.680210113525391 C 68.94340515136719 8.845645904541016 62.40225982666016 8.306559562683105 54.99138641357422 8.264564514160156 C 47.82485580444336 8.223953247070312 41.45930480957031 8.657280921936035 35.90619659423828 9.383602142333984 C 30.34767723083496 10.11063003540039 25.60407638549805 11.13110542297363 21.68697357177734 12.26335144042969 C 17.76681137084961 13.39648151397705 14.67532920837402 14.64130401611328 12.42390823364258 15.8155460357666 C 10.17130756378174 16.99040794372559 8.760287284851074 18.09428024291992 8.201800346374512 18.94456100463867 M 0.04453005269169807 18.90519905090332 C 0.05066951736807823 16.2916431427002 1.600365161895752 13.81083297729492 4.395869255065918 11.5632266998291 C 7.189196586608887 9.317374229431152 11.22550964355469 7.305062770843506 16.20709991455078 5.625890254974365 C 21.18355941772461 3.948446750640869 27.10239601135254 2.603773355484009 33.66717147827148 1.690663576126099 C 40.22434234619141 0.7786115407943726 47.42549896240234 0.2971859276294708 54.97628784179688 0.34458988904953 C 62.51828384399414 0.3919386565685272 69.69673156738281 0.9624429941177368 76.22116851806641 1.95296573638916 C 82.73998260498047 2.942636251449585 88.60809326171875 4.351932525634766 93.53571319580078 6.078485012054443 C 98.46088409423828 7.804178237915039 102.4484405517578 9.847488403320312 105.2083282470703 12.10671615600586 C 107.9680099487305 14.36577224731445 109.50146484375 16.84173011779785 109.517333984375 19.43340873718262 C 109.5332183837891 22.02613067626953 108.0288238525391 24.49036026000977 105.2930450439453 26.72720146179199 C 102.5551528930664 28.96577835083008 98.58309936523438 30.97731781005859 93.66579437255859 32.66209030151367 C 88.74343872070312 34.34858703613281 82.8729248046875 35.70796585083008 76.34439086914062 36.63970947265625 C 69.80828857421875 37.57251739501953 62.61215209960938 38.07675552368164 55.04816436767578 38.0512809753418 C 47.47533416748047 38.02577590942383 40.25232315063477 37.47177505493164 33.67602157592773 36.49111938476562 C 27.09401893615723 35.50960540771484 21.16205406188965 34.10102844238281 16.17771148681641 32.36801528930664 C 11.19087696075439 30.63413238525391 7.154589653015137 28.57616806030273 4.366202831268311 26.29742813110352 C 1.577612996101379 24.01851081848145 0.03839574754238129 21.51982116699219 0.04453005269169807 18.90519905090332 Z" stroke="none" fill="#9a9a9a"/>
    </g>
    <g id="Ellipse_14" data-name="Ellipse 14" transform="translate(36.069 4.191)" fill="none">
      <path d="M19.124,109.939c-2.63.007-5.14-1.537-7.424-4.335A39.326,39.326,0,0,1,5.627,93.756,97.893,97.893,0,0,1,1.531,76.2,149.322,149.322,0,0,1,.024,54.76,148.446,148.446,0,0,1,1.507,33.395,96.293,96.293,0,0,1,5.559,16.017a38.427,38.427,0,0,1,6-11.665C13.823,1.607,16.306.1,18.914.113s5.094,1.554,7.358,4.322A39.061,39.061,0,0,1,32.3,16.144a97.037,97.037,0,0,1,4.1,17.37,148.735,148.735,0,0,1,1.556,21.313A149.151,149.151,0,0,1,36.541,76.2a97.692,97.692,0,0,1-4.01,17.517,39.271,39.271,0,0,1-6.008,11.851C24.253,108.378,21.753,109.933,19.124,109.939Z" stroke="none"/>
      <path d="M 18.92972946166992 8.169297218322754 C 18.07863616943359 8.715682029724121 16.97093772888184 10.10420989990234 15.78848934173584 12.32693767547607 C 14.60541343688965 14.55083084106445 13.34717750549316 17.61042213439941 12.19596195220947 21.4982795715332 C 11.04384708404541 25.38917350769043 9.998661994934082 30.1104793548584 9.243186950683594 35.65493392944336 C 8.486978530883789 41.20481491088867 8.020918846130371 47.58036422729492 8.028531074523926 54.77423095703125 C 8.036419868469238 62.23016357421875 8.551210403442383 68.82415771484375 9.359151840209961 74.54192352294922 C 10.16770267486572 80.26403045654297 11.26955509185791 85.10654449462891 12.45021915435791 89.05666351318359 C 13.63138580322266 93.00844573974609 14.89107894897461 96.06590270996094 16.01456069946289 98.21736907958984 C 17.13822555541992 100.3691864013672 18.1253719329834 101.6142120361328 18.76136207580566 101.9416885375977 C 19.5695972442627 101.6115341186523 20.68178558349609 100.3629302978516 21.89405250549316 98.20796966552734 C 23.10569381713867 96.05413055419922 24.41692543029785 92.99553680419922 25.62420654296875 89.04489135742188 C 26.83052635192871 85.09740447998047 27.93276596069336 80.26024627685547 28.72805404663086 74.54634094238281 C 29.52253913879395 68.83817291259766 30.01055526733398 62.25603485107422 29.99006462097168 54.81271362304688 C 29.97029304504395 47.63100051879883 29.48152923583984 41.26357650756836 28.70655632019043 35.71774291992188 C 27.93215942382812 30.17602157592773 26.87171363830566 25.45278930664062 25.70737648010254 21.55664443969727 C 24.54353141784668 17.66215133666992 23.27555084228516 14.59293651580811 22.08535194396973 12.35860061645508 C 20.89534187316895 10.12462043762207 19.78280830383301 8.724723815917969 18.92972946166992 8.169297218322754 M 18.91437149047852 0.1129345893859863 C 21.52157974243164 0.1285081803798676 24.00790596008301 1.666548490524292 26.27242088317871 4.434762001037598 C 28.53711128234863 7.20319938659668 30.58097267150879 11.20324325561523 32.30255889892578 16.14397621154785 C 34.02500915527344 21.08718109130859 35.425537109375 26.97394371032715 36.40200424194336 33.51359176635742 C 37.37931442260742 40.05887985229492 37.93216323852539 47.26036071777344 37.95764541625977 54.82667541503906 C 37.98316192626953 62.4018440246582 37.47768783569336 69.62635803222656 36.5408821105957 76.20487976074219 C 35.60298538208008 82.79106140136719 34.23282623291016 88.72930145263672 32.5306510925293 93.72217559814453 C 30.82671928405762 98.72022247314453 28.79041290283203 102.7699890136719 26.52280235290527 105.5727615356445 C 24.25341796875 108.3777313232422 21.75307655334473 109.9328689575195 19.12372589111328 109.939453125 C 16.4933032989502 109.9460372924805 13.984055519104 108.4022064208984 11.69958019256592 105.6048965454102 C 9.415287971496582 102.8078155517578 7.356774806976318 98.75869750976562 5.627103328704834 93.75591278076172 C 3.898301362991333 88.75563812255859 2.498695611953735 82.80460357666016 1.530650019645691 76.20138549804688 C 0.563448429107666 69.60390472412109 0.0273811761289835 62.35755920410156 0.024033322930336 54.76020431518555 C 0.02068939618766308 47.17175674438477 0.5491697788238525 39.95231246948242 1.506859421730042 33.39497375488281 C 2.463440895080566 26.84524917602539 3.848302841186523 20.95564651489258 5.559458255767822 16.01720809936523 C 7.268846035003662 11.08385848999023 9.304184913635254 7.098773002624512 11.56428718566895 4.351776123046875 C 13.8226375579834 1.606919407844543 16.30610847473145 0.09735472500324249 18.91437149047852 0.1129345893859863 Z" stroke="none" fill="#9a9a9a"/>
    </g>
  </g>
  <path id="Ellipse_15" data-name="Ellipse 15" d="M12.634,4.24a6.034,6.034,0,0,1,.052,8.5,5.936,5.936,0,0,1-8.44.021A6.034,6.034,0,0,1,4.2,4.255a5.936,5.936,0,0,1,8.435-.015Z" transform="translate(154.481 154.181)" fill="#9a9a9a"/>
</svg>
